<?xml version="1.0" encoding="utf-8"?>
<!-- Generator: Adobe Illustrator 16.0.0, SVG Export Plug-In . SVG Version: 6.00 Build 0)  -->
<!DOCTYPE svg PUBLIC "-//W3C//DTD SVG 1.1//EN" "http://www.w3.org/Graphics/SVG/1.1/DTD/svg11.dtd">
<svg version="1.1" id="Layer_1" xmlns="http://www.w3.org/2000/svg" xmlns:xlink="http://www.w3.org/1999/xlink" x="0px" y="0px"
	 width="48px" height="48px" viewBox="0 0 48 48" enable-background="new 0 0 48 48" xml:space="preserve">
<g>
	<path d="M40.378,23.211c0.533,0,0.879-0.221,1.159-0.739c0.427-0.793,0.812-2.062,1.149-3.562
		c-1.932-3.649-5.142-6.631-9.115-8.466l-0.588,0.564c-0.824,0.792-0.012,5.876,2.541,9.005
		C37.06,21.896,39.057,23.211,40.378,23.211z"/>
	<path d="M43.915,23.755c-0.75,1.392-2.007,2.16-3.537,2.16l0,0c-2.6,0-5.295-2.167-6.947-4.192
		c-2.576-3.156-4.606-9.68-2.599-12.323c-2.024-0.615-4.182-0.962-6.431-0.962c-11.187,0-20.289,8.247-20.289,18.384
		c0,10.138,9.102,18.385,20.289,18.385c11.186,0,20.288-8.247,20.288-18.385c0-1.306-0.157-2.581-0.445-3.812
		C44.131,23.306,44.021,23.559,43.915,23.755z"/>
</g>
<g>
	<path d="M10.117,10.737L5.979,6.961c-0.277-0.284-0.896-0.77-1.361-0.77c-0.085,0-0.283,0-0.541,0.333
		c-0.531,0.883,0.256,5.253,1.298,9.076C6.673,13.761,8.27,12.117,10.117,10.737z"/>
</g>
<path d="M43.532,3.014c-0.517-0.633-0.877-0.633-0.995-0.633c-0.547,0-1.149,0.532-1.317,0.719l-8.236,7.909
	c-0.824,0.792-0.012,5.876,2.541,9.005c1.535,1.883,3.532,3.198,4.854,3.198c0.533,0,0.879-0.221,1.159-0.739
	C43.567,18.701,44.741,4.494,43.532,3.014z"/>
</svg>
